<mxfile host="app.diagrams.net" modified="2021-04-16T08:23:55.130Z" agent="5.0 (Windows NT 10.0; Win64; x64) AppleWebKit/537.36 (KHTML, like Gecko) Chrome/89.0.4389.114 Safari/537.36" etag="ZEXK_6iGHURm_cbGv6yw" version="14.6.1" type="github">
  <diagram id="C5RBs43oDa-KdzZeNtuy" name="Page-1">
    <mxGraphModel dx="1609" dy="470" grid="1" gridSize="10" guides="1" tooltips="1" connect="1" arrows="1" fold="1" page="1" pageScale="1" pageWidth="827" pageHeight="1169" math="0" shadow="0">
      <root>
        <mxCell id="WIyWlLk6GJQsqaUBKTNV-0" />
        <mxCell id="WIyWlLk6GJQsqaUBKTNV-1" parent="WIyWlLk6GJQsqaUBKTNV-0" />
        <mxCell id="5qvXHf44OxkZj2yafT35-12" style="edgeStyle=orthogonalEdgeStyle;rounded=0;orthogonalLoop=1;jettySize=auto;html=1;" edge="1" parent="WIyWlLk6GJQsqaUBKTNV-1">
          <mxGeometry relative="1" as="geometry">
            <mxPoint x="164.5" y="180" as="targetPoint" />
            <mxPoint x="164.5" y="140" as="sourcePoint" />
          </mxGeometry>
        </mxCell>
        <mxCell id="5qvXHf44OxkZj2yafT35-13" value="Scientific_Calculator" style="rounded=1;whiteSpace=wrap;html=1;" vertex="1" parent="WIyWlLk6GJQsqaUBKTNV-1">
          <mxGeometry x="105" y="180" width="120" height="60" as="geometry" />
        </mxCell>
        <mxCell id="5qvXHf44OxkZj2yafT35-17" value="User" style="rounded=1;whiteSpace=wrap;html=1;" vertex="1" parent="WIyWlLk6GJQsqaUBKTNV-1">
          <mxGeometry x="105" y="80" width="120" height="60" as="geometry" />
        </mxCell>
        <mxCell id="5qvXHf44OxkZj2yafT35-19" value="Arithmatic operations" style="rounded=1;whiteSpace=wrap;html=1;" vertex="1" parent="WIyWlLk6GJQsqaUBKTNV-1">
          <mxGeometry x="-340" y="310" width="120" height="60" as="geometry" />
        </mxCell>
        <mxCell id="5qvXHf44OxkZj2yafT35-20" value="Trignometric Operations" style="rounded=1;whiteSpace=wrap;html=1;" vertex="1" parent="WIyWlLk6GJQsqaUBKTNV-1">
          <mxGeometry x="105" y="310" width="120" height="60" as="geometry" />
        </mxCell>
        <mxCell id="5qvXHf44OxkZj2yafT35-21" value="Other mathematical Operations" style="rounded=1;whiteSpace=wrap;html=1;" vertex="1" parent="WIyWlLk6GJQsqaUBKTNV-1">
          <mxGeometry x="690" y="310" width="120" height="60" as="geometry" />
        </mxCell>
        <mxCell id="5qvXHf44OxkZj2yafT35-28" value="" style="endArrow=none;html=1;" edge="1" parent="WIyWlLk6GJQsqaUBKTNV-1">
          <mxGeometry width="50" height="50" relative="1" as="geometry">
            <mxPoint x="360" y="280" as="sourcePoint" />
            <mxPoint x="590" y="280" as="targetPoint" />
          </mxGeometry>
        </mxCell>
        <mxCell id="5qvXHf44OxkZj2yafT35-29" value="" style="endArrow=none;html=1;" edge="1" parent="WIyWlLk6GJQsqaUBKTNV-1">
          <mxGeometry width="50" height="50" relative="1" as="geometry">
            <mxPoint x="120" y="280" as="sourcePoint" />
            <mxPoint x="360" y="280" as="targetPoint" />
          </mxGeometry>
        </mxCell>
        <mxCell id="5qvXHf44OxkZj2yafT35-30" value="" style="endArrow=classic;html=1;entryX=0.59;entryY=-0.01;entryDx=0;entryDy=0;entryPerimeter=0;" edge="1" parent="WIyWlLk6GJQsqaUBKTNV-1" target="5qvXHf44OxkZj2yafT35-21">
          <mxGeometry width="50" height="50" relative="1" as="geometry">
            <mxPoint x="591" y="280" as="sourcePoint" />
            <mxPoint x="430" y="270" as="targetPoint" />
            <Array as="points">
              <mxPoint x="761" y="280" />
            </Array>
          </mxGeometry>
        </mxCell>
        <mxCell id="5qvXHf44OxkZj2yafT35-32" value="" style="endArrow=classic;html=1;entryX=0.417;entryY=0;entryDx=0;entryDy=0;entryPerimeter=0;" edge="1" parent="WIyWlLk6GJQsqaUBKTNV-1" target="5qvXHf44OxkZj2yafT35-19">
          <mxGeometry width="50" height="50" relative="1" as="geometry">
            <mxPoint x="120" y="280" as="sourcePoint" />
            <mxPoint x="430" y="270" as="targetPoint" />
            <Array as="points">
              <mxPoint x="-290" y="280" />
            </Array>
          </mxGeometry>
        </mxCell>
        <mxCell id="5qvXHf44OxkZj2yafT35-33" value="" style="endArrow=none;html=1;entryX=0.5;entryY=1;entryDx=0;entryDy=0;" edge="1" parent="WIyWlLk6GJQsqaUBKTNV-1" target="5qvXHf44OxkZj2yafT35-13">
          <mxGeometry width="50" height="50" relative="1" as="geometry">
            <mxPoint x="165" y="280" as="sourcePoint" />
            <mxPoint x="430" y="270" as="targetPoint" />
            <Array as="points">
              <mxPoint x="165" y="280" />
            </Array>
          </mxGeometry>
        </mxCell>
        <mxCell id="5qvXHf44OxkZj2yafT35-34" value="" style="endArrow=classic;html=1;" edge="1" parent="WIyWlLk6GJQsqaUBKTNV-1">
          <mxGeometry width="50" height="50" relative="1" as="geometry">
            <mxPoint x="164.5" y="280" as="sourcePoint" />
            <mxPoint x="164.5" y="310" as="targetPoint" />
            <Array as="points" />
          </mxGeometry>
        </mxCell>
        <mxCell id="5qvXHf44OxkZj2yafT35-36" value="Input" style="text;html=1;strokeColor=none;fillColor=none;align=center;verticalAlign=middle;whiteSpace=wrap;rounded=0;" vertex="1" parent="WIyWlLk6GJQsqaUBKTNV-1">
          <mxGeometry x="170" y="150" width="40" height="20" as="geometry" />
        </mxCell>
        <mxCell id="5qvXHf44OxkZj2yafT35-37" value="Add" style="rounded=1;whiteSpace=wrap;html=1;" vertex="1" parent="WIyWlLk6GJQsqaUBKTNV-1">
          <mxGeometry x="-450" y="430" width="60" height="60" as="geometry" />
        </mxCell>
        <mxCell id="5qvXHf44OxkZj2yafT35-38" value="Subtract" style="rounded=1;whiteSpace=wrap;html=1;" vertex="1" parent="WIyWlLk6GJQsqaUBKTNV-1">
          <mxGeometry x="-370" y="430" width="70" height="60" as="geometry" />
        </mxCell>
        <mxCell id="5qvXHf44OxkZj2yafT35-39" value="Multiply" style="rounded=1;whiteSpace=wrap;html=1;" vertex="1" parent="WIyWlLk6GJQsqaUBKTNV-1">
          <mxGeometry x="-280" y="430" width="70" height="60" as="geometry" />
        </mxCell>
        <mxCell id="5qvXHf44OxkZj2yafT35-40" value="Divide" style="rounded=1;whiteSpace=wrap;html=1;" vertex="1" parent="WIyWlLk6GJQsqaUBKTNV-1">
          <mxGeometry x="-180" y="430" width="60" height="60" as="geometry" />
        </mxCell>
        <mxCell id="5qvXHf44OxkZj2yafT35-44" value="sin" style="rounded=1;whiteSpace=wrap;html=1;" vertex="1" parent="WIyWlLk6GJQsqaUBKTNV-1">
          <mxGeometry x="-20" y="430" width="50" height="60" as="geometry" />
        </mxCell>
        <mxCell id="5qvXHf44OxkZj2yafT35-45" value="cos" style="rounded=1;whiteSpace=wrap;html=1;" vertex="1" parent="WIyWlLk6GJQsqaUBKTNV-1">
          <mxGeometry x="45" y="430" width="60" height="60" as="geometry" />
        </mxCell>
        <mxCell id="5qvXHf44OxkZj2yafT35-46" value="tan" style="rounded=1;whiteSpace=wrap;html=1;" vertex="1" parent="WIyWlLk6GJQsqaUBKTNV-1">
          <mxGeometry x="130" y="430" width="50" height="60" as="geometry" />
        </mxCell>
        <mxCell id="5qvXHf44OxkZj2yafT35-47" value="cosec" style="rounded=1;whiteSpace=wrap;html=1;" vertex="1" parent="WIyWlLk6GJQsqaUBKTNV-1">
          <mxGeometry x="200" y="430" width="50" height="60" as="geometry" />
        </mxCell>
        <mxCell id="5qvXHf44OxkZj2yafT35-48" value="sec" style="rounded=1;whiteSpace=wrap;html=1;" vertex="1" parent="WIyWlLk6GJQsqaUBKTNV-1">
          <mxGeometry x="270" y="430" width="50" height="60" as="geometry" />
        </mxCell>
        <mxCell id="5qvXHf44OxkZj2yafT35-49" value="cot" style="rounded=1;whiteSpace=wrap;html=1;" vertex="1" parent="WIyWlLk6GJQsqaUBKTNV-1">
          <mxGeometry x="340" y="430" width="40" height="60" as="geometry" />
        </mxCell>
        <mxCell id="5qvXHf44OxkZj2yafT35-51" value="exponent" style="rounded=1;whiteSpace=wrap;html=1;" vertex="1" parent="WIyWlLk6GJQsqaUBKTNV-1">
          <mxGeometry x="490" y="430" width="70" height="60" as="geometry" />
        </mxCell>
        <mxCell id="5qvXHf44OxkZj2yafT35-53" value="natural log" style="rounded=1;whiteSpace=wrap;html=1;" vertex="1" parent="WIyWlLk6GJQsqaUBKTNV-1">
          <mxGeometry x="580" y="430" width="70" height="60" as="geometry" />
        </mxCell>
        <mxCell id="5qvXHf44OxkZj2yafT35-54" value="log base 10" style="rounded=1;whiteSpace=wrap;html=1;" vertex="1" parent="WIyWlLk6GJQsqaUBKTNV-1">
          <mxGeometry x="670" y="430" width="80" height="60" as="geometry" />
        </mxCell>
        <mxCell id="5qvXHf44OxkZj2yafT35-55" value="square root" style="rounded=1;whiteSpace=wrap;html=1;" vertex="1" parent="WIyWlLk6GJQsqaUBKTNV-1">
          <mxGeometry x="770" y="430" width="80" height="60" as="geometry" />
        </mxCell>
        <mxCell id="5qvXHf44OxkZj2yafT35-56" value="square" style="rounded=1;whiteSpace=wrap;html=1;" vertex="1" parent="WIyWlLk6GJQsqaUBKTNV-1">
          <mxGeometry x="880" y="430" width="60" height="60" as="geometry" />
        </mxCell>
        <mxCell id="5qvXHf44OxkZj2yafT35-57" value="nth power" style="rounded=1;whiteSpace=wrap;html=1;" vertex="1" parent="WIyWlLk6GJQsqaUBKTNV-1">
          <mxGeometry x="960" y="430" width="80" height="60" as="geometry" />
        </mxCell>
        <mxCell id="5qvXHf44OxkZj2yafT35-58" value="nth root" style="rounded=1;whiteSpace=wrap;html=1;" vertex="1" parent="WIyWlLk6GJQsqaUBKTNV-1">
          <mxGeometry x="1060" y="430" width="60" height="60" as="geometry" />
        </mxCell>
        <mxCell id="5qvXHf44OxkZj2yafT35-59" value="xth power of 10" style="rounded=1;whiteSpace=wrap;html=1;" vertex="1" parent="WIyWlLk6GJQsqaUBKTNV-1">
          <mxGeometry x="1141" y="430" width="100" height="60" as="geometry" />
        </mxCell>
        <mxCell id="5qvXHf44OxkZj2yafT35-60" value="factorial" style="rounded=1;whiteSpace=wrap;html=1;" vertex="1" parent="WIyWlLk6GJQsqaUBKTNV-1">
          <mxGeometry x="1270" y="430" width="80" height="60" as="geometry" />
        </mxCell>
        <mxCell id="5qvXHf44OxkZj2yafT35-61" value="" style="endArrow=none;html=1;" edge="1" parent="WIyWlLk6GJQsqaUBKTNV-1">
          <mxGeometry width="50" height="50" relative="1" as="geometry">
            <mxPoint x="760" y="370" as="sourcePoint" />
            <mxPoint x="760" y="390" as="targetPoint" />
          </mxGeometry>
        </mxCell>
        <mxCell id="5qvXHf44OxkZj2yafT35-62" value="" style="endArrow=none;html=1;" edge="1" parent="WIyWlLk6GJQsqaUBKTNV-1">
          <mxGeometry width="50" height="50" relative="1" as="geometry">
            <mxPoint x="760" y="390" as="sourcePoint" />
            <mxPoint x="1310" y="390" as="targetPoint" />
          </mxGeometry>
        </mxCell>
        <mxCell id="5qvXHf44OxkZj2yafT35-63" value="" style="endArrow=none;html=1;" edge="1" parent="WIyWlLk6GJQsqaUBKTNV-1">
          <mxGeometry width="50" height="50" relative="1" as="geometry">
            <mxPoint x="520" y="390" as="sourcePoint" />
            <mxPoint x="770" y="390" as="targetPoint" />
          </mxGeometry>
        </mxCell>
        <mxCell id="5qvXHf44OxkZj2yafT35-64" value="" style="endArrow=none;html=1;" edge="1" parent="WIyWlLk6GJQsqaUBKTNV-1">
          <mxGeometry width="50" height="50" relative="1" as="geometry">
            <mxPoint y="390" as="sourcePoint" />
            <mxPoint x="360" y="390" as="targetPoint" />
          </mxGeometry>
        </mxCell>
        <mxCell id="5qvXHf44OxkZj2yafT35-65" value="" style="endArrow=none;html=1;entryX=0.5;entryY=1;entryDx=0;entryDy=0;" edge="1" parent="WIyWlLk6GJQsqaUBKTNV-1" target="5qvXHf44OxkZj2yafT35-20">
          <mxGeometry width="50" height="50" relative="1" as="geometry">
            <mxPoint x="165" y="390" as="sourcePoint" />
            <mxPoint x="100" y="320" as="targetPoint" />
          </mxGeometry>
        </mxCell>
        <mxCell id="5qvXHf44OxkZj2yafT35-66" value="" style="endArrow=none;html=1;entryX=0.5;entryY=1;entryDx=0;entryDy=0;" edge="1" parent="WIyWlLk6GJQsqaUBKTNV-1" target="5qvXHf44OxkZj2yafT35-19">
          <mxGeometry width="50" height="50" relative="1" as="geometry">
            <mxPoint x="-280" y="390" as="sourcePoint" />
            <mxPoint x="-100" y="320" as="targetPoint" />
          </mxGeometry>
        </mxCell>
        <mxCell id="5qvXHf44OxkZj2yafT35-67" value="" style="endArrow=none;html=1;" edge="1" parent="WIyWlLk6GJQsqaUBKTNV-1">
          <mxGeometry width="50" height="50" relative="1" as="geometry">
            <mxPoint x="-420" y="389" as="sourcePoint" />
            <mxPoint x="-150" y="389" as="targetPoint" />
          </mxGeometry>
        </mxCell>
        <mxCell id="5qvXHf44OxkZj2yafT35-68" value="" style="endArrow=classic;html=1;entryX=0.5;entryY=0;entryDx=0;entryDy=0;" edge="1" parent="WIyWlLk6GJQsqaUBKTNV-1" target="5qvXHf44OxkZj2yafT35-37">
          <mxGeometry width="50" height="50" relative="1" as="geometry">
            <mxPoint x="-420" y="390" as="sourcePoint" />
            <mxPoint x="-100" y="410" as="targetPoint" />
          </mxGeometry>
        </mxCell>
        <mxCell id="5qvXHf44OxkZj2yafT35-76" value="" style="endArrow=classic;html=1;entryX=0.5;entryY=0;entryDx=0;entryDy=0;" edge="1" parent="WIyWlLk6GJQsqaUBKTNV-1" target="5qvXHf44OxkZj2yafT35-40">
          <mxGeometry width="50" height="50" relative="1" as="geometry">
            <mxPoint x="-150" y="390" as="sourcePoint" />
            <mxPoint x="-100" y="410" as="targetPoint" />
          </mxGeometry>
        </mxCell>
        <mxCell id="5qvXHf44OxkZj2yafT35-77" value="" style="endArrow=classic;html=1;" edge="1" parent="WIyWlLk6GJQsqaUBKTNV-1" target="5qvXHf44OxkZj2yafT35-39">
          <mxGeometry width="50" height="50" relative="1" as="geometry">
            <mxPoint x="-250" y="390" as="sourcePoint" />
            <mxPoint x="-100" y="410" as="targetPoint" />
          </mxGeometry>
        </mxCell>
        <mxCell id="5qvXHf44OxkZj2yafT35-78" value="" style="endArrow=classic;html=1;" edge="1" parent="WIyWlLk6GJQsqaUBKTNV-1" target="5qvXHf44OxkZj2yafT35-38">
          <mxGeometry width="50" height="50" relative="1" as="geometry">
            <mxPoint x="-340" y="390" as="sourcePoint" />
            <mxPoint x="-100" y="410" as="targetPoint" />
          </mxGeometry>
        </mxCell>
        <mxCell id="5qvXHf44OxkZj2yafT35-79" value="" style="endArrow=classic;html=1;" edge="1" parent="WIyWlLk6GJQsqaUBKTNV-1">
          <mxGeometry width="50" height="50" relative="1" as="geometry">
            <mxPoint y="390" as="sourcePoint" />
            <mxPoint y="430" as="targetPoint" />
          </mxGeometry>
        </mxCell>
        <mxCell id="5qvXHf44OxkZj2yafT35-81" value="" style="endArrow=classic;html=1;" edge="1" parent="WIyWlLk6GJQsqaUBKTNV-1">
          <mxGeometry width="50" height="50" relative="1" as="geometry">
            <mxPoint x="359.5" y="390" as="sourcePoint" />
            <mxPoint x="359.5" y="430" as="targetPoint" />
          </mxGeometry>
        </mxCell>
        <mxCell id="5qvXHf44OxkZj2yafT35-83" value="" style="endArrow=classic;html=1;entryX=0.5;entryY=0;entryDx=0;entryDy=0;" edge="1" parent="WIyWlLk6GJQsqaUBKTNV-1" target="5qvXHf44OxkZj2yafT35-45">
          <mxGeometry width="50" height="50" relative="1" as="geometry">
            <mxPoint x="75" y="390" as="sourcePoint" />
            <mxPoint x="100" y="410" as="targetPoint" />
          </mxGeometry>
        </mxCell>
        <mxCell id="5qvXHf44OxkZj2yafT35-86" value="" style="endArrow=classic;html=1;entryX=0.5;entryY=0;entryDx=0;entryDy=0;" edge="1" parent="WIyWlLk6GJQsqaUBKTNV-1">
          <mxGeometry width="50" height="50" relative="1" as="geometry">
            <mxPoint x="155" y="391" as="sourcePoint" />
            <mxPoint x="155" y="431" as="targetPoint" />
          </mxGeometry>
        </mxCell>
        <mxCell id="5qvXHf44OxkZj2yafT35-87" value="" style="endArrow=classic;html=1;entryX=0.5;entryY=0;entryDx=0;entryDy=0;" edge="1" parent="WIyWlLk6GJQsqaUBKTNV-1">
          <mxGeometry width="50" height="50" relative="1" as="geometry">
            <mxPoint x="225" y="391" as="sourcePoint" />
            <mxPoint x="225" y="431" as="targetPoint" />
          </mxGeometry>
        </mxCell>
        <mxCell id="5qvXHf44OxkZj2yafT35-88" value="" style="endArrow=classic;html=1;entryX=0.5;entryY=0;entryDx=0;entryDy=0;" edge="1" parent="WIyWlLk6GJQsqaUBKTNV-1">
          <mxGeometry width="50" height="50" relative="1" as="geometry">
            <mxPoint x="291" y="391" as="sourcePoint" />
            <mxPoint x="291" y="431" as="targetPoint" />
          </mxGeometry>
        </mxCell>
        <mxCell id="5qvXHf44OxkZj2yafT35-91" value="" style="endArrow=classic;html=1;entryX=0.5;entryY=0;entryDx=0;entryDy=0;" edge="1" parent="WIyWlLk6GJQsqaUBKTNV-1" target="5qvXHf44OxkZj2yafT35-60">
          <mxGeometry width="50" height="50" relative="1" as="geometry">
            <mxPoint x="1310" y="390" as="sourcePoint" />
            <mxPoint x="1200" y="410" as="targetPoint" />
          </mxGeometry>
        </mxCell>
        <mxCell id="5qvXHf44OxkZj2yafT35-92" value="" style="endArrow=classic;html=1;entryX=0.5;entryY=0;entryDx=0;entryDy=0;" edge="1" parent="WIyWlLk6GJQsqaUBKTNV-1">
          <mxGeometry width="50" height="50" relative="1" as="geometry">
            <mxPoint x="1188" y="390" as="sourcePoint" />
            <mxPoint x="1188" y="430" as="targetPoint" />
          </mxGeometry>
        </mxCell>
        <mxCell id="5qvXHf44OxkZj2yafT35-93" value="" style="endArrow=classic;html=1;entryX=0.5;entryY=0;entryDx=0;entryDy=0;" edge="1" parent="WIyWlLk6GJQsqaUBKTNV-1">
          <mxGeometry width="50" height="50" relative="1" as="geometry">
            <mxPoint x="1093" y="391" as="sourcePoint" />
            <mxPoint x="1093" y="431" as="targetPoint" />
          </mxGeometry>
        </mxCell>
        <mxCell id="5qvXHf44OxkZj2yafT35-94" value="" style="endArrow=classic;html=1;entryX=0.5;entryY=0;entryDx=0;entryDy=0;" edge="1" parent="WIyWlLk6GJQsqaUBKTNV-1" target="5qvXHf44OxkZj2yafT35-57">
          <mxGeometry width="50" height="50" relative="1" as="geometry">
            <mxPoint x="1000" y="390" as="sourcePoint" />
            <mxPoint x="1000" y="410" as="targetPoint" />
          </mxGeometry>
        </mxCell>
        <mxCell id="5qvXHf44OxkZj2yafT35-95" value="" style="endArrow=classic;html=1;entryX=0.5;entryY=0;entryDx=0;entryDy=0;" edge="1" parent="WIyWlLk6GJQsqaUBKTNV-1" target="5qvXHf44OxkZj2yafT35-56">
          <mxGeometry width="50" height="50" relative="1" as="geometry">
            <mxPoint x="910" y="390" as="sourcePoint" />
            <mxPoint x="1000" y="410" as="targetPoint" />
          </mxGeometry>
        </mxCell>
        <mxCell id="5qvXHf44OxkZj2yafT35-96" value="" style="endArrow=classic;html=1;entryX=0.5;entryY=0;entryDx=0;entryDy=0;" edge="1" parent="WIyWlLk6GJQsqaUBKTNV-1" target="5qvXHf44OxkZj2yafT35-55">
          <mxGeometry width="50" height="50" relative="1" as="geometry">
            <mxPoint x="810" y="390" as="sourcePoint" />
            <mxPoint x="1000" y="410" as="targetPoint" />
          </mxGeometry>
        </mxCell>
        <mxCell id="5qvXHf44OxkZj2yafT35-98" value="" style="endArrow=classic;html=1;entryX=0.5;entryY=0;entryDx=0;entryDy=0;" edge="1" parent="WIyWlLk6GJQsqaUBKTNV-1" target="5qvXHf44OxkZj2yafT35-54">
          <mxGeometry width="50" height="50" relative="1" as="geometry">
            <mxPoint x="710" y="390" as="sourcePoint" />
            <mxPoint x="660" y="410" as="targetPoint" />
          </mxGeometry>
        </mxCell>
        <mxCell id="5qvXHf44OxkZj2yafT35-99" value="" style="endArrow=classic;html=1;entryX=0.5;entryY=0;entryDx=0;entryDy=0;" edge="1" parent="WIyWlLk6GJQsqaUBKTNV-1" target="5qvXHf44OxkZj2yafT35-53">
          <mxGeometry width="50" height="50" relative="1" as="geometry">
            <mxPoint x="615" y="390" as="sourcePoint" />
            <mxPoint x="660" y="410" as="targetPoint" />
          </mxGeometry>
        </mxCell>
        <mxCell id="5qvXHf44OxkZj2yafT35-101" value="" style="endArrow=classic;html=1;entryX=0.5;entryY=0;entryDx=0;entryDy=0;" edge="1" parent="WIyWlLk6GJQsqaUBKTNV-1" target="5qvXHf44OxkZj2yafT35-51">
          <mxGeometry width="50" height="50" relative="1" as="geometry">
            <mxPoint x="525" y="390" as="sourcePoint" />
            <mxPoint x="660" y="410" as="targetPoint" />
          </mxGeometry>
        </mxCell>
        <mxCell id="5qvXHf44OxkZj2yafT35-102" value="" style="endArrow=none;html=1;exitX=1;exitY=0.5;exitDx=0;exitDy=0;" edge="1" parent="WIyWlLk6GJQsqaUBKTNV-1" source="5qvXHf44OxkZj2yafT35-13">
          <mxGeometry width="50" height="50" relative="1" as="geometry">
            <mxPoint x="50" y="80" as="sourcePoint" />
            <mxPoint x="280" y="210" as="targetPoint" />
          </mxGeometry>
        </mxCell>
        <mxCell id="5qvXHf44OxkZj2yafT35-103" value="" style="endArrow=none;html=1;" edge="1" parent="WIyWlLk6GJQsqaUBKTNV-1">
          <mxGeometry width="50" height="50" relative="1" as="geometry">
            <mxPoint x="280" y="210" as="sourcePoint" />
            <mxPoint x="280" y="110" as="targetPoint" />
          </mxGeometry>
        </mxCell>
        <mxCell id="5qvXHf44OxkZj2yafT35-104" value="" style="endArrow=classic;html=1;entryX=1;entryY=0.5;entryDx=0;entryDy=0;" edge="1" parent="WIyWlLk6GJQsqaUBKTNV-1" target="5qvXHf44OxkZj2yafT35-17">
          <mxGeometry width="50" height="50" relative="1" as="geometry">
            <mxPoint x="280" y="110" as="sourcePoint" />
            <mxPoint x="100" y="30" as="targetPoint" />
          </mxGeometry>
        </mxCell>
        <mxCell id="5qvXHf44OxkZj2yafT35-105" value="Output" style="text;html=1;strokeColor=none;fillColor=none;align=center;verticalAlign=middle;whiteSpace=wrap;rounded=0;" vertex="1" parent="WIyWlLk6GJQsqaUBKTNV-1">
          <mxGeometry x="290" y="140" width="40" height="20" as="geometry" />
        </mxCell>
      </root>
    </mxGraphModel>
  </diagram>
</mxfile>
